# xmcd
#
# Track frame offsets:
#	150
#	15234
#	31579
#	53773
#	74119
#	91166
#	107912
#	125709
#	170916
#	183562
#	208210
#
# Disc length: 3049 seconds
#
# Revision: 3
# Processed by: cddbd v1.5.2PL0 Copyright (c) Steve Scherf et al.
# Submitted via: audiograbber 1.83.01
#
DISCID=9c0be70b
DTITLE=Paul Simon - The Concert In Hyde Park [CD 1)
DYEAR=2017
DGENRE=Pop
TTITLE0=Kodachrome [live]
TTITLE1=Gone At Last [live]
TTITLE2=Dazzling Blue [live]
TTITLE3=50 Ways To Leave Your Lover [live]
TTITLE4=Vietnam [with Jimmy Cliff] [live]
TTITLE5=Mother And Child Reunion [with Jimmy Cliff] [live]
TTITLE6=That Was Your Mother [live]
TTITLE7=Hearts And Bones - Mystery Train - Wheels [live]
TTITLE8=Me And Julio Down By The Schoolyard [live]
TTITLE9=Slip Slidin' Away [live]
TTITLE10=The Obvious Child [live]
EXTD=
EXTT0=
EXTT1=
EXTT2=
EXTT3=
EXTT4=
EXTT5=
EXTT6=
EXTT7=
EXTT8=
EXTT9=
EXTT10=
PLAYORDER=
